<svg xmlns="http://www.w3.org/2000/svg" viewBox="0 0 32 32">
    <path
        d="M20.015,11.792a8.2,8.2,0,1,0,3.147.619A8.221,8.221,0,0,0,20.015,11.792Zm0,13.553A5.347,5.347,0,1,1,23.8,23.78,5.354,5.354,0,0,1,20.015,25.345Zm10.48-13.893a2,2,0,1,1-.587-1.416A2,2,0,0,1,30.495,11.452Zm5.43,2A9.424,9.424,0,0,0,33.34,6.748a9.443,9.443,0,0,0-6.713-2.642c-2.6-.12-10.62-.12-13.225,0A9.483,9.483,0,0,0,6.69,6.688a9.424,9.424,0,0,0-2.585,6.706c-.12,2.6-.12,10.61,0,13.212A9.424,9.424,0,0,0,6.69,33.312,9.483,9.483,0,0,0,13.4,35.895c2.645.16,10.58.16,13.225,0a9.442,9.442,0,0,0,6.713-2.582,9.423,9.423,0,0,0,2.585-6.706c.12-2.6.12-10.61,0-13.212ZM32.518,29.469a5.407,5.407,0,0,1-3.046,3.043,36.093,36.093,0,0,1-9.458.641,35.924,35.924,0,0,1-9.438-.641,5.408,5.408,0,0,1-3.046-3.043c-.842-2.122-.661-7.127-.661-9.449s-.18-7.347.661-9.449a5.308,5.308,0,0,1,3.046-3.063,35.921,35.921,0,0,1,9.438-.641,36.1,36.1,0,0,1,9.458.641,5.408,5.408,0,0,1,3.046,3.043c.842,2.122.641,7.127.641,9.449s.2,7.347-.641,9.449Z"
        transform="translate(-4.015 -4.015)" />
</svg>