<svg xmlns="http://www.w3.org/2000/svg" viewBox="0 0 705.486 382.297">
    <g transform="translate(151.31 -176.735)">
        <path
            d="M783.6,259.655a141.526,141.526,0,0,0-17.148-8.68c-2.083-.91-3.232-2.96-2.548-4.637h0c.684-1.677,3.009-2.32,5.173-1.374a146.938,146.938,0,0,1,17.811,9.016c2.072,1.2,2.964,3.476,2.017,5.02h0C787.958,260.544,785.594,260.811,783.6,259.655Z"
            transform="translate(-235.106 -41.009)" fill="#8abb2a" />
        <path
            d="M772.787,290.52c-1.812-.954-2.724-1.415-4.558-2.307a3.644,3.644,0,0,1-2.087-4.606h0c.751-1.648,2.976-2.253,4.951-1.294,1.911.928,2.861,1.409,4.749,2.4,1.95,1.027,2.8,3.188,1.915,4.77h0C776.875,291.067,774.659,291.506,772.787,290.52Z"
            transform="translate(-236.424 -63.592)" fill="#f77e0b" />
        <path d="M422.06,197.524l-14.054-15.4a1.033,1.033,0,0,0-1.726,1.069l7.526,19.447Z"
            transform="translate(-18.839 -3.049)" fill="#4e4e4e" />
        <path
            d="M588.132,272.518c-1.792-.546-2.691-.8-4.5-1.292a3.523,3.523,0,0,1-2.693-4.1,3.366,3.366,0,0,1,3.646-2.381,160.459,160.459,0,0,0-74.67-.79l3.649,4.886c6.58-1.1,14.8-2.477,18.825-3.158a30.079,30.079,0,0,1,5.043-.463c.644,0,1.283.026,1.9.079a22.852,22.852,0,0,1,11.988,4.619,29.313,29.313,0,0,1,9.55-1.75A18.712,18.712,0,0,1,569.208,270a23.461,23.461,0,0,1,8.284,6.752c2.9.605,5.8,1.28,8.73,2.043a3.432,3.432,0,0,0,4.315-2.07A3.389,3.389,0,0,0,588.132,272.518Z"
            transform="translate(-81.58 -50.333)" fill="#e50019" />
        <path
            d="M595.591,252.988c-32.827-10.963-65.16-12.514-96.458-4.742l4.256,5.7c29.206-6.725,59.333-5.022,89.907,5.188a3.629,3.629,0,0,0,4.749-1.677C598.719,255.775,597.628,253.749,595.591,252.988Z"
            transform="translate(-75.056 -40.324)" fill="#f77e0b" />
        <path
            d="M492.61,238.182a164.539,164.539,0,0,1,62.325-3.3c.231.015.457.026.688.041V234.9c-2.027-.4-3.469-2.024-3.236-3.769.225-1.68,1.984-2.84,4.017-2.7v-.018l-.165-.026a172.417,172.417,0,0,0-67.892,4.083Z"
            transform="translate(-68.531 -30.257)" fill="#ffc900" />
        <path
            d="M581.38,218.5c-35.423-10.6-70.231-11.138-103.7-1.741l4.214,5.642c31.467-8.326,64.08-7.578,97.411,2.321,2.139.715,4.36-.039,4.975-1.743S583.6,219.245,581.38,218.5Z"
            transform="translate(-62.075 -20.189)" fill="#8abb2a" />
        <path
            d="M470.21,200.78l1.335,3.694,1.615,2.162c32.327-9.073,65.9-8.88,100.066.69l0-.016c-2.112-.748-3.417-2.714-2.936-4.4.468-1.638,2.526-2.5,4.7-1.992v0C539.487,190.876,504.183,190.879,470.21,200.78Z"
            transform="translate(-57.559 -10.063)" fill="#0055a5" />
        <path
            d="M585.171,188.24c-40.727-14.024-81.577-15.185-120.627-3.715l2.238,6.191c37.573-10.951,76.774-9.8,116.07,3.659,2.281.862,4.667.252,5.348-1.426S587.534,189.133,585.171,188.24Z"
            transform="translate(-54.132)" fill="#e22485" />
        <path
            d="M421.054,267.991a23.32,23.32,0,0,0,11.934,3.16l.072,0,1.709,25.367a4.32,4.32,0,0,1-4.439,4.685,4.206,4.206,0,0,1-4.067-2.928l-9.519-26.881Zm31.219-2.725-5.823,30.719a4.354,4.354,0,0,0,4.394,5.216,4.194,4.194,0,0,0,3.84-2.453l9.818-19.805-6.763-17.263A57.49,57.49,0,0,1,452.273,265.266Zm-47.524-56.6-27.967,17.77a3.708,3.708,0,0,0-1.283,4.876l1.639,3.072a3.707,3.707,0,0,0,4.228,1.837l3.13-.835a19.842,19.842,0,0,1,5.111-.674,18.81,18.81,0,0,1,7.48,1.532A10.486,10.486,0,0,0,400.4,237h.026a9.272,9.272,0,0,0,6.154-2.031,11.378,11.378,0,0,0,4.293-6.869s.495,6.595-3.808,9.335l2.705,13.757-10.445,17.242a5.636,5.636,0,0,0-.205,5.47l7.89,15.548a4.352,4.352,0,0,0,3.966,2.509h.044a4.518,4.518,0,0,0,4.508-5.456l-2.843-14.221L429.9,258.7h2.921l-10.236,8.081a21.612,21.612,0,0,0,10.4,2.562c13.25,0,25.547-10.59,25.547-10.59l15.648,39.94a3.771,3.771,0,0,0,3.253,2.5c.118.01.237.015.354.015a4.179,4.179,0,0,0,2.964-1.219,3.767,3.767,0,0,0,1.034-3.146l-4.609-46.062a30.424,30.424,0,0,0-.592-4.23c5.5,2.354,13.205,7.947,15.026,21.031a24.254,24.254,0,0,0-4.681-26.943c3.853,1.927,6.244,5.7,7.5,8.858,1.89,1.4,3.827,2.952,4.77,4.69.439-4.513-2.222-15.19-12.366-20.182a16.981,16.981,0,0,0-7.545-1.641,27.951,27.951,0,0,0-9.874,1.993,21.142,21.142,0,0,0-11.816-4.868c-.584-.049-1.167-.072-1.748-.072a28.421,28.421,0,0,0-4.745.437c-4.2.71-12.925,2.172-19.9,3.339L412.4,208,408.7,197.779Z"
            transform="translate(0 -12.73)" fill="#4e4e4e" />
        <path
            d="M590.526,380.834h-46.45l32.238-81.808L505.6,126.4h49.224l45.064,119.94L644.6,126.4H692.44ZM446.67,34.189h44.718V301.106H446.67Zm-67.594,0h44.717V301.106H379.076ZM313.222,278.574c-13.172,16.292-32.931,26-58.93,26-47.143,0-86.314-40.211-86.314-91.168,0-50.61,39.171-91.168,86.314-91.168,24.959,0,44.024,9.013,56.85,23.919V126.4h45.064v174.71H314.262ZM262.959,163.487A49.492,49.492,0,0,0,213.042,213.4c0,27.732,21.838,50.264,49.917,50.264,27.731,0,49.57-22.532,49.57-50.264S290.69,163.487,262.959,163.487Zm67.851-80.32c-4.559,5.64-11.4,9-20.4,9-16.319,0-29.879-13.92-29.879-31.559,0-17.519,13.56-31.559,29.879-31.559,8.64,0,15.24,3.12,19.679,8.28v-6.84h15.6V90.967H331.17Zm-17.4-39.838A17.34,17.34,0,1,0,330.57,60.608,17.131,17.131,0,0,0,313.411,43.329Zm-44.04,47.638h-15.6V43.089h-11.88v-12.6h11.88V8.77h15.6V30.489h11.76v12.6h-11.76Zm-46.56-36.959c9,3,18.12,7.08,18.12,19.2,0,12.24-9.48,18.96-22.68,18.96-10.439,0-18.959-4.2-23.759-9l8.76-10.68c4.2,4.32,9.84,6.96,14.519,6.96,4.8,0,7.68-2.52,7.68-5.76,0-4.2-4.92-5.279-12.119-7.8-9.36-3.36-17.28-7.56-17.28-18.12,0-12.239,10.56-18.479,22.2-18.479,8.76,0,16.08,3.48,20.76,8.64l-9.12,9.239c-3.48-3.479-8.04-5.879-12.12-5.879-3.839,0-6.359,2.04-6.359,5.159C211.412,50.528,215.732,51.728,222.811,54.008Zm-42.719-34.2a9.09,9.09,0,0,1-9.12-9,9.121,9.121,0,1,1,9.12,9ZM106.413,30.489h16.679l15,34.079,15-34.079H169.77L138.091,93.367Zm2.4,33H61.172c1.2,9.839,8.159,16.079,17.039,16.079a17.568,17.568,0,0,0,15.479-8.76l12.48,5.16c-4.92,9.96-15.119,16.2-27.839,16.2-19.2,0-32.4-13.92-32.4-31.439s13.44-31.439,31.919-31.439c17.4,0,30.839,12.36,31.079,30.839ZM77.971,41.649a15.812,15.812,0,0,0-15.239,9.959H92.371C89.851,45.488,85.051,41.649,77.971,41.649Zm-51,22.559V90.967H11.492V30.489h15.48v8.52c3.6-6.12,8.639-9.72,16.319-9.72a13.042,13.042,0,0,1,2.16.12V44.648C36.211,42.849,26.972,46.568,26.972,64.208Zm160.8-33.719V90.967h-15.36V30.489ZM93.8,224.844,137.131,126.4h48.184L93.8,308.039,2.286,126.4H50.47Z"
            transform="translate(-153.596 178.198)" fill="#4e4e4e" fill-rule="evenodd" />
    </g>
</svg>