<svg xmlns="http://www.w3.org/2000/svg" viewBox="0 0 32 32">
    <path
        d="M31.656,4.643A6.747,6.747,0,0,0,25.236,0H6.764A6.74,6.74,0,0,0,.343,4.649,6.674,6.674,0,0,0,0,6.764V25.236c0,.084,0,.168.005.262a6.7,6.7,0,0,0,.647,2.64A6.816,6.816,0,0,0,6.764,32H25.236a6.818,6.818,0,0,0,6.057-3.753l.051-.109a6.58,6.58,0,0,0,.646-2.621l0-.056A2.072,2.072,0,0,0,32,25.236V6.764A6.671,6.671,0,0,0,31.656,4.643ZM2.081,9.195l8.462,7.377L2.081,23.944ZM29.8,26.284a4.664,4.664,0,0,1-4.566,3.635H6.764A4.658,4.658,0,0,1,2.2,26.277l-.068-.3,9.6-8.369,1.43,1.245a4.323,4.323,0,0,0,5.679,0l1.43-1.245,9.6,8.376Zm.117-2.334-8.466-7.383L29.919,9.19V23.95Zm0-16.83L17.808,17.679a2.771,2.771,0,0,1-3.622,0L2.081,7.12V6.764A4.688,4.688,0,0,1,6.764,2.081H25.236a4.688,4.688,0,0,1,4.683,4.683Z" />
</svg>