<svg xmlns="http://www.w3.org/2000/svg" viewBox="0 0 32 32">
    <path
        d="M27.333,4.667A16.028,16.028,0,0,0,0,16a15.713,15.713,0,0,0,2.267,7.893L0,32l8.44-2.067A15.729,15.729,0,0,0,16,32,16.028,16.028,0,0,0,27.333,4.667ZM16,29.333a13.235,13.235,0,0,1-6.68-1.987l-.48-.293-5.013,1.32L5.16,23.48l-.32-.507A13.152,13.152,0,0,1,2.667,16,13.333,13.333,0,1,1,16,29.333Zm7.333-10.067c-.4-.2-2.36-1.16-2.72-1.293s-.627-.2-.893.2-1.027,1.293-1.267,1.56-.467.293-.867.093a10.739,10.739,0,0,1-3.2-1.973,11.656,11.656,0,0,1-2.213-2.76.585.585,0,0,1,.173-.813c.173-.173.4-.467.6-.693a2.606,2.606,0,0,0,.4-.667.741.741,0,0,0-.027-.693c-.107-.2-.907-2.16-1.24-2.96-.32-.773-.653-.667-.893-.68s-.493-.013-.76-.013a1.523,1.523,0,0,0-1.067.493A4.524,4.524,0,0,0,7.973,12.4,7.744,7.744,0,0,0,9.6,16.52c.2.267,2.813,4.293,6.8,6.013a23.121,23.121,0,0,0,2.267.84,5.359,5.359,0,0,0,2.507.16,4.135,4.135,0,0,0,2.693-1.893,3.227,3.227,0,0,0,.227-1.893C24,19.573,23.733,19.467,23.333,19.267Z"
        fill-rule="evenodd" />
</svg>